<svg xmlns="http://www.w3.org/2000/svg" width="1000" height="1112"><g transform="translate(-.525 .45)"><svg viewBox="0 0 222 247" data-background-color="#ffffff" height="1112" width="1000" xmlns="http://www.w3.org/2000/svg" xmlns:xlink="http://www.w3.org/1999/xlink"><g transform="translate(.117 -.1)"><svg viewBox="0 0 221.767 247.2" height="247.2" width="221.767"><g><svg/></g><g><svg viewBox="0 0 221.767 247.2" height="247.2" width="221.767"><g transform="translate(0 47.215)"><svg viewBox="0 0 221.767 152.77" height="152.77" width="221.767"><g><svg viewBox="0 0 221.767 152.77" height="152.77" width="221.767"><g><svg viewBox="0 0 244.431 168.383" height="152.77" width="221.767"><g transform="translate(0 125.208)"><svg viewBox="0 0 244.431 43.175" height="43.175" width="244.431"><g><svg viewBox="0 0 244.431 43.175" height="43.175" width="244.431"><g><svg viewBox="0 0 244.431 24.869" height="24.869" width="244.431"><g><svg width="244.431" viewBox="3.08 -40.48 403.1 41.02" height="24.869" data-palette-color="#528265"><path d="m3.08-5.08 4.12-6.27q2.08 1.17 4.21 2.11 2.14.94 4.43 1.59 2.3.64 4.83.98 2.52.35 5.38.35 3.44 0 5.86-.45 2.42-.46 3.94-1.25 1.53-.79 2.22-1.89.7-1.1.7-2.39 0-2.08-1.73-3.29-1.74-1.21-5.35-1.21-1.59 0-3.35.21-1.75.21-3.55.45-1.79.25-3.54.45-1.74.21-3.28.21-2.56 0-4.92-.66t-4.18-1.98q-1.81-1.31-2.89-3.29-1.07-1.98-1.07-4.62 0-1.56.42-3.1.43-1.53 1.37-2.94.94-1.4 2.43-2.61 1.49-1.21 3.6-2.09 2.11-.88 4.88-1.38 2.78-.5 6.32-.5 2.56 0 5.15.28 2.59.28 5.04.8 2.45.51 4.72 1.23 2.27.72 4.23 1.6l-3.4 6.25q-1.61-.71-3.46-1.31-1.86-.6-3.89-1.03-2.02-.44-4.18-.7-2.16-.26-4.41-.26-3.2 0-5.26.47-2.06.46-3.28 1.18-1.23.72-1.7 1.61-.48.89-.48 1.77 0 1.71 1.54 2.8 1.54 1.08 4.69 1.08 1.27 0 2.92-.18 1.64-.18 3.46-.4 1.82-.22 3.71-.4 1.9-.19 3.68-.19 3.37 0 5.97.76 2.6.76 4.35 2.16 1.76 1.4 2.67 3.39.9 1.99.9 4.46 0 3.29-1.53 5.87-1.52 2.58-4.34 4.35-2.82 1.77-6.8 2.68-3.98.92-8.86.92-3.23 0-6.3-.41-3.08-.4-5.9-1.14-2.82-.75-5.37-1.79-2.55-1.03-4.72-2.28Zm50.07-9.42q0-2.93 1.19-5.6 1.2-2.68 3.45-4.73 2.24-2.05 5.5-3.27 3.26-1.22 7.41-1.22 4.13 0 7.43 1.23 3.31 1.23 5.62 3.38t3.54 5.06q1.23 2.9 1.23 6.22 0 .42-.01.89-.01.48-.06.87H61.2q.47 1.29 1.51 2.37 1.03 1.07 2.6 1.85 1.56.78 3.61 1.21 2.05.43 4.54.43t4.96-.53q2.46-.52 4.71-1.33l2.44 5.52q-1.42.66-2.87 1.16-1.45.5-3.03.83-1.57.33-3.29.5-1.72.17-3.63.17-4.86 0-8.52-1.17-3.66-1.17-6.13-3.2-2.46-2.02-3.71-4.76-1.24-2.73-1.24-5.88Zm8.05-2.81h19.66q-.39-1.2-1.21-2.23-.82-1.04-2.04-1.81-1.22-.77-2.83-1.21-1.61-.44-3.54-.44-2.05 0-3.74.47-1.68.46-2.95 1.24-1.27.78-2.11 1.81-.85 1.02-1.24 2.17Zm33.35 2.98q0-3.17 1.16-5.92t3.39-4.76q2.24-2.02 5.47-3.16 3.24-1.15 7.39-1.15 1.8 0 3.64.22 1.83.22 3.52.62 1.7.4 3.19.95 1.49.55 2.59 1.21l-3.35 5.45q-2.37-1.1-4.48-1.62-2.11-.51-4.28-.51-2.49 0-4.47.65-1.98.65-3.36 1.81-1.38 1.16-2.1 2.73-.72 1.57-.72 3.43t.77 3.43q.77 1.57 2.18 2.71 1.4 1.14 3.39 1.78 1.99.65 4.43.65 2.69 0 5.07-.76 2.38-.75 4.43-2.02l3.34 5.44q-1.29.78-2.81 1.45-1.51.67-3.23 1.16-1.72.49-3.61.77-1.9.28-3.92.28-4.13 0-7.4-1.12-3.27-1.12-5.54-3.11-2.27-1.99-3.48-4.7t-1.21-5.91Zm38.99.58v-15.08h7.2v14.06q0 2 .44 3.65t1.5 2.82q1.06 1.17 2.83 1.82 1.77.65 4.41.65 1.24 0 2.53-.27 1.28-.27 2.45-.75 1.17-.47 2.18-1.13 1.02-.66 1.75-1.44v-19.41h7.23V0h-7.23v-2.47q-2.66 1.59-5.35 2.27-2.68.69-5.1.69-3.95 0-6.77-.95-2.82-.96-4.62-2.77-1.79-1.82-2.62-4.47-.83-2.65-.83-6.05ZM175.23 0v-28.81h7.23v4.15q2.39-1.78 5.05-3.07 2.67-1.3 5.3-1.98l2.13 6.61q-4.18.42-7.34 1.87-3.16 1.45-5.14 4.09V0h-7.23Zm23.71-14.5q0-2.93 1.19-5.6 1.2-2.68 3.45-4.73 2.24-2.05 5.5-3.27 3.26-1.22 7.41-1.22 4.13 0 7.44 1.23 3.3 1.23 5.61 3.38 2.31 2.15 3.54 5.06 1.23 2.9 1.23 6.22 0 .42-.01.89-.01.48-.06.87h-27.25q.47 1.29 1.51 2.37 1.03 1.07 2.6 1.85 1.56.78 3.61 1.21 2.05.43 4.54.43t4.96-.53q2.46-.52 4.71-1.33l2.44 5.52q-1.42.66-2.87 1.16-1.45.5-3.03.83-1.57.33-3.29.5-1.72.17-3.63.17-4.86 0-8.52-1.17-3.66-1.17-6.13-3.2-2.46-2.02-3.71-4.76-1.24-2.73-1.24-5.88Zm8.05-2.81h19.66q-.39-1.2-1.21-2.23-.82-1.04-2.04-1.81-1.22-.77-2.83-1.21-1.61-.44-3.54-.44-2.05 0-3.74.47-1.68.46-2.95 1.24-1.27.78-2.11 1.81-.85 1.02-1.24 2.17Zm50.27-2q0-4.08 1.54-7.61 1.53-3.52 4.45-6.12t7.13-4.09q4.21-1.49 9.53-1.49 4.67 0 8.56.94 3.9.94 7.24 2.87l-3.56 5.85q-1.01-.65-2.31-1.17-1.31-.51-2.78-.86-1.48-.36-3.06-.55-1.57-.2-3.11-.2-3.71 0-6.62.92-2.9.91-4.89 2.56-1.99 1.65-3.03 3.93-1.04 2.28-1.04 5.02 0 2.83 1.08 5.2 1.07 2.37 3.11 4.09 2.04 1.72 4.98 2.68 2.94.97 6.65.97 1.69 0 3.35-.25 1.66-.24 3.21-.67 1.55-.42 2.99-1.02 1.44-.6 2.69-1.31l3.56 5.86q-3.12 2-7.23 3.14-4.1 1.13-8.71 1.13-5.89 0-10.33-1.52-4.44-1.53-7.42-4.2-2.98-2.68-4.48-6.3-1.5-3.63-1.5-7.8ZM304.55 0v-40.48h7.22v13.87q2.27-1.25 5.07-1.98 2.79-.73 5.87-.73 3.56 0 6.41 1.05 2.84 1.05 4.82 3.01 1.98 1.97 3.04 4.78 1.06 2.8 1.06 6.32V0h-7.2v-13.87q0-2.05-.66-3.74-.66-1.7-1.93-2.92t-3.09-1.89q-1.82-.68-4.11-.68-2.76 0-5.13.88T311.77-20V0h-7.22Zm40.2-9.08q0-2.08.91-3.79.9-1.71 2.71-2.94 1.8-1.23 4.5-1.9 2.7-.67 6.29-.67 2.66 0 5.6.39 2.94.39 6.07 1.19-.12-1.36-.83-2.52t-1.97-2.01q-1.26-.84-3.03-1.3-1.77-.47-4.01-.47-1.22 0-2.69.15-1.46.15-3.02.44-1.57.29-3.09.73-1.53.44-2.85 1.05l-2.19-5.93q1.63-.59 3.5-1.07 1.87-.49 3.82-.85 1.95-.35 3.91-.55 1.95-.19 3.78-.19 8.08 0 12.01 4.12 3.93 4.13 3.93 12.65V0h-7.22v-2.71q-1.13.66-2.46 1.25-1.33.58-2.89 1.02-1.56.44-3.36.7-1.79.25-3.79.25-3.37 0-5.92-.73-2.56-.73-4.26-2.03-1.71-1.29-2.58-3.04-.87-1.74-.87-3.79Zm7.62-.25q0 .71.37 1.36.36.65 1.17 1.15.8.5 2.06.8 1.26.31 3.04.31 1.91 0 3.69-.34 1.78-.35 3.32-.91 1.54-.56 2.78-1.29 1.25-.73 2.08-1.52v-1.27q-1.66-.46-3.29-.78-1.62-.31-3.1-.5-1.48-.18-2.78-.25-1.31-.08-2.28-.08-2.03 0-3.37.27-1.35.27-2.18.72-.83.45-1.17 1.06-.34.61-.34 1.27ZM391.99 0v-23.39h-6.96v-5.42h6.96v-8.96h7.23v8.96h6.96v5.42h-6.96V0h-7.23Z" fill="#528265" class="undefined-text-0" data-fill-palette-color="primary"/></svg></g></svg></g><g transform="translate(0 30.74)"><svg viewBox="0 0 244.431 12.435" height="12.435" width="244.431"><g><svg width="244.431" viewBox="1.95 -35.6 711.59 36.2" height="12.435" data-palette-color="#528265"><path d="M13.45.6Q10 .6 7.43-.53 4.85-1.65 3.4-3.7 1.95-5.75 1.95-8.5q0-.45.05-.97.05-.53.15-1.03h4.4q-.15.7-.15 1.35 0 2.7 2.03 4.45 2.02 1.75 5.47 1.75 4 0 6.1-1.95 2.1-1.95 2.1-5.15 0-1.65-.82-2.73-.83-1.07-2.23-1.8-1.4-.72-3.12-1.3-1.73-.57-3.48-1.22-3.3-1.2-4.92-3.28Q5.9-22.45 5.9-25.1q0-3.15 1.55-5.5t4.35-3.67q2.8-1.33 6.5-1.33 2.95 0 5.23 1.02 2.27 1.03 3.52 2.88 1.25 1.85 1.25 4.25 0 .75-.15 1.55H23.8q0-.25.03-.48.02-.22.02-.47 0-1.95-1.52-3.55Q20.8-32 17.7-32q-3.3 0-5.32 1.77-2.03 1.78-2.03 4.48 0 1.9 1.23 3.02 1.22 1.13 3.27 1.88t4.5 1.65q3.05 1.15 5.15 3.22 2.1 2.08 2.1 5.43 0 3.35-1.65 5.85-1.65 2.5-4.6 3.9Q17.4.6 13.45.6ZM71.18 0h-20.2l6.15-35h20.25l-.65 3.35h-16L58.58-19.3h14.5l-.55 3.3H57.98l-2.2 12.65h16L71.18 0Zm42.18.6q-4.45 0-7.57-1.75-3.13-1.75-4.78-4.9-1.65-3.15-1.65-7.35 0-4.7 1.53-8.75 1.52-4.05 4.27-7.08 2.75-3.02 6.43-4.7 3.67-1.67 7.97-1.67 6 0 9.3 2.87 3.3 2.88 3.45 8.03h-4.75q-.1-3.35-2.25-5.28-2.15-1.92-6.35-1.92-3.25 0-6.02 1.37-2.78 1.38-4.83 3.85-2.05 2.48-3.2 5.78-1.15 3.3-1.15 7.15 0 5.05 2.7 7.85t7.5 2.8q4.2 0 6.98-1.9 2.77-1.9 4.07-5.15h4.75q-1.95 5.1-6.2 7.92Q119.31.6 113.36.6Zm53.08 0q-3.15 0-5.6-1.08-2.45-1.07-3.87-3.32-1.43-2.25-1.43-5.7 0-1.6.3-3.4l3.95-22.1h4.2l-3.95 22.1q-.3 1.5-.3 2.75 0 3.65 2.03 5.3 2.02 1.65 5.37 1.65 3.9 0 6.73-2.3 2.82-2.3 3.72-7.4l3.95-22.1h4.2l-3.9 22.1q-.8 4.65-3.07 7.65-2.28 3-5.5 4.42Q170.04.6 166.44.6Zm44.94-.6h-4.2l6.15-35h11.25q3.6 0 5.85 1.23 2.25 1.22 3.3 3.22 1.05 2 1.05 4.35 0 4.3-2.48 7.2-2.47 2.9-6.62 3.95L230.63 0h-4.55l-4.55-14.45H213.93L211.38 0Zm5.55-31.45-2.4 13.7h6.8q4.15 0 6.65-2.08 2.5-2.07 2.5-5.97 0-2.35-1.6-4t-5.2-1.65h-6.75ZM276.96 0h-20.2l6.15-35h20.25l-.65 3.35h-16l-2.15 12.35h14.5l-.55 3.3h-14.55l-2.2 12.65h16l-.6 3.35Zm76.36.6q-4.45 0-7.58-1.75-3.12-1.75-4.77-4.9-1.65-3.15-1.65-7.35 0-4.7 1.52-8.75 1.53-4.05 4.28-7.08 2.75-3.02 6.42-4.7 3.68-1.67 7.98-1.67 6 0 9.3 2.87 3.3 2.88 3.45 8.03h-4.75q-.1-3.35-2.25-5.28-2.15-1.92-6.35-1.92-3.25 0-6.03 1.37-2.77 1.38-4.82 3.85-2.05 2.48-3.2 5.78-1.15 3.3-1.15 7.15 0 5.05 2.7 7.85t7.5 2.8q4.2 0 6.97-1.9 2.78-1.9 4.08-5.15h4.75q-1.95 5.1-6.2 7.92Q359.27.6 353.32.6ZM398.1 0h-4.2l6.15-35h4.2l-2.75 15.5h18.2l2.75-15.5h4.2l-6.2 35h-4.2l2.9-16.2h-18.2L398.1 0Zm51.93 0h-4.5l19.1-35h4.45l6.65 35h-4.35l-1.65-9h-14.9l-4.8 9Zm15.9-30-9.35 17.7h12.55l-3.2-17.7Zm43.28 30h-4.2l5.55-31.65h-10.4l.6-3.35h25.05l-.6 3.35h-10.45L509.21 0Zm47.83 0h-4.2l5.55-31.65h-10.4l.6-3.35h25.05l-.6 3.35h-10.45L557.04 0Zm39.69 0h-4.2l6.15-35h4.2l-6.15 35Zm31.53 0h-4.2l6.15-35h4.15l13.75 28.35L653.06-35h4.2l-6.15 35h-4.2l-13.65-28.35-5 28.35Zm65.28.6q-4.25 0-7.28-1.88-3.02-1.87-4.67-5.17t-1.65-7.5q0-4.7 1.5-8.68 1.5-3.97 4.2-6.87t6.4-4.5q3.7-1.6 8.15-1.6 5.95 0 9.52 2.85 3.58 2.85 3.83 7.85h-4.85q-.15-3.15-2.45-5-2.3-1.85-6.5-1.85-4.6 0-8.08 2.25-3.47 2.25-5.4 6.2-1.92 3.95-1.92 9.1 0 5.05 2.67 8.05 2.68 3 7.33 3 5.6 0 9.02-3.28 3.43-3.27 4.83-8.97h-10.1l.55-3.3h14.45L709.79 0h-3.85l.65-5.75q-2.45 3.05-5.45 4.7-3 1.65-7.6 1.65Z" fill="#528265" class="undefined-text-1" data-fill-palette-color="secondary"/></svg></g></svg></g></svg></g></svg></g><g transform="translate(76.945)"><svg viewBox="0 0 90.541 119.337" height="119.337" width="90.541"><g><svg xmlns="http://www.w3.org/2000/svg" xmlns:xlink="http://www.w3.org/1999/xlink" viewBox="16.28 0.817 74.63 98.365" xml:space="preserve" height="119.337" width="90.541" class="icon-icon-0" data-fill-palette-color="accent"><path fill="#528265" d="M85.65 46.792h-7.615V26.275c0-2.259-.336-8.12-3.44-13.723C71.627 7.198 65.415.817 52.667.817c-12.747 0-18.96 6.381-21.927 11.735-3.105 5.603-3.441 11.463-3.441 13.723v20.518H21.54a5.259 5.259 0 0 0-5.26 5.258v41.871a5.26 5.26 0 0 0 5.26 5.26h64.11a5.26 5.26 0 0 0 5.26-5.26V52.051a5.26 5.26 0 0 0-5.26-5.259zM37.482 26.275c0-4.593 1.48-15.275 15.185-15.275s15.186 10.682 15.186 15.274v20.518h-30.37V26.275zm7.876 62.877L34.527 76.955l6.175-5.436 4.753 5.396 21.149-20.094 6.058 7.08-27.304 25.251z" data-fill-palette-color="accent"/></svg></g></svg></g></svg></g></svg></g></svg></g><path d="M0 41.215V1h221.767v40.215h-2.035V3.035H2.035v38.18H0m0 164.77V246.2h221.767v-40.215h-2.035v38.18H2.035v-38.18H0" fill="#528265" stroke="transparent" data-fill-palette-color="primary"/></svg></g></svg></g></svg></g></svg>